<svg width="278" height="278" viewBox="0 0 278 278" fill="none" xmlns="http://www.w3.org/2000/svg">
<path d="M200.384 90.1955C188.596 76.0685 172.146 66.5081 153.93 63.1981C135.714 59.8881 116.902 63.0408 100.806 72.101C84.7094 81.1612 72.3622 95.5478 65.9386 112.727C59.5149 129.906 59.4268 148.776 65.6898 166.013C71.9528 183.25 84.1652 197.748 100.176 206.955C116.187 216.162 134.969 219.486 153.215 216.343C171.461 213.199 188 203.789 199.92 189.771C211.839 175.752 218.374 158.023 218.374 139.707H139.715" stroke="url(#paint0_linear_7_1)" stroke-width="22" stroke-linecap="round"/>
<path d="M237.726 57.5309C218.543 34.2854 191.774 18.5542 162.132 13.1077C132.49 7.66127 101.876 12.849 75.6835 27.7571C49.4908 42.6653 29.3985 66.3377 18.9455 94.6051C8.49246 122.873 8.34912 153.922 18.5407 182.285C28.7323 210.647 48.6051 234.504 74.6591 249.654C100.713 264.803 131.277 270.273 160.968 265.1C190.659 259.928 217.573 244.445 236.969 221.377C256.365 198.31 267 169.138 267 139H139" stroke="url(#paint1_linear_7_1)" stroke-width="22" stroke-linecap="round" stroke-linejoin="round"/>
<defs>
<linearGradient id="paint0_linear_7_1" x1="139.715" y1="99.3978" x2="202.89" y2="242.065" gradientUnits="userSpaceOnUse">
<stop stop-color="#4D7CCA"/>
<stop offset="1" stop-color="#252525"/>
</linearGradient>
<linearGradient id="paint1_linear_7_1" x1="198.352" y1="22.3149" x2="259.367" y2="184.004" gradientUnits="userSpaceOnUse">
<stop offset="0.250847" stop-color="#4D7CCA"/>
<stop offset="1" stop-color="#252525"/>
</linearGradient>
</defs>
</svg>
